<svg width="494" height="218" viewBox="0 0 494 218" fill="none" xmlns="http://www.w3.org/2000/svg">
<path d="M5.15469 137.396C5.41589 136.91 6.02211 136.727 6.50873 136.988L14.4385 141.245C14.9252 141.506 15.1079 142.112 14.8467 142.599C14.5855 143.085 13.9793 143.268 13.4926 143.007L6.44392 139.223L2.66034 146.272C2.39914 146.758 1.79292 146.941 1.3063 146.68C0.819691 146.419 0.63696 145.813 0.898159 145.326L5.15469 137.396ZM267.009 4.79024L267.298 5.74769L267.009 4.79024ZM6.99323 137.58C7.60534 139.611 8.22118 141.597 8.84069 143.539L6.93532 144.147C6.31245 142.194 5.69343 140.198 5.07833 138.158L6.99323 137.58ZM12.601 154.663C14.017 158.611 15.4503 162.344 16.9003 165.869L15.0506 166.63C13.5882 163.074 12.1439 159.313 10.7184 155.338L12.601 154.663ZM21.6326 176.526C23.4357 180.275 25.2614 183.728 27.1078 186.896L25.3798 187.903C23.5041 184.684 21.6539 181.185 19.8303 177.393L21.6326 176.526ZM33.6187 196.803C36.1612 200.199 38.735 203.106 41.3354 205.559L39.9631 207.014C37.2686 204.472 34.6196 201.477 32.0177 198.002L33.6187 196.803ZM50.6309 212.392C54.2227 214.325 57.861 215.505 61.5421 216.014L61.2681 217.995C57.3424 217.452 53.4767 216.194 49.6832 214.153L50.6309 212.392ZM73.0181 215.544C76.6118 214.794 80.2591 213.503 83.9549 211.723L84.8229 213.525C81.0056 215.363 77.2042 216.714 73.4268 217.502L73.0181 215.544ZM94.0259 205.78C97.1056 203.647 100.208 201.225 103.329 198.545L104.632 200.063C101.466 202.781 98.3093 205.247 95.1646 207.424L94.0259 205.78ZM112.006 190.506C114.726 187.808 117.456 184.943 120.194 181.933L121.674 183.278C118.916 186.311 116.162 189.201 113.414 191.926L112.006 190.506ZM128.006 172.985C130.51 170.009 133.017 166.93 135.526 163.764L137.094 165.006C134.574 168.185 132.054 171.28 129.537 174.272L128.006 172.985ZM142.804 154.357C145.16 151.244 147.516 148.069 149.87 144.845L151.485 146.024C149.125 149.256 146.762 152.441 144.398 155.564L142.804 154.357ZM156.814 135.201C159.1 131.985 161.383 128.736 163.662 125.467L165.303 126.611C163.021 129.884 160.734 133.138 158.444 136.36L156.814 135.201ZM170.435 115.683C172.683 112.417 174.925 109.144 177.16 105.875L178.811 107.004C176.575 110.273 174.332 113.548 172.083 116.817L170.435 115.683ZM183.881 96.0414C186.136 92.7449 188.382 89.4658 190.618 86.2172L192.265 87.3512C190.031 90.5974 187.786 93.8746 185.532 97.1703L183.881 96.0414ZM197.392 76.4386C199.684 73.1542 201.965 69.9162 204.232 66.7388L205.86 67.9006C203.598 71.0712 201.321 74.3035 199.032 77.5833L197.392 76.4386ZM211.244 57.0621C213.658 53.7873 216.056 50.5998 218.434 47.5177L220.017 48.7396C217.649 51.8084 215.261 54.984 212.854 58.2489L211.244 57.0621ZM225.871 38.1665C228.493 34.9796 231.089 31.9479 233.657 29.0974L235.143 30.4362C232.598 33.2611 230.021 36.2696 227.416 39.4371L225.871 38.1665ZM241.941 20.4663C244.982 17.5203 247.981 14.8783 250.935 12.5887L252.161 14.1694C249.276 16.4054 246.332 18.9971 243.332 21.9027L241.941 20.4663ZM261.118 6.07041C263.003 5.14182 264.871 4.39028 266.721 3.83279L267.298 5.74769C265.567 6.26943 263.801 6.97805 262.001 7.86459L261.118 6.07041ZM266.721 3.83279C268.704 3.23483 270.667 2.73332 272.608 2.32461L273.02 4.2817C271.136 4.67843 269.228 5.16575 267.298 5.74769L266.721 3.83279ZM284.448 0.946457C288.513 0.862172 292.477 1.18685 296.347 1.87953L295.995 3.84825C292.252 3.17838 288.42 2.86454 284.489 2.94603L284.448 0.946457ZM307.859 5.08908C311.538 6.48568 315.124 8.20651 318.624 10.209L317.631 11.945C314.213 9.98959 310.721 8.31502 307.149 6.95885L307.859 5.08908ZM328.556 16.7789C331.669 19.1167 334.715 21.6646 337.699 24.3887L336.35 25.8656C333.408 23.1796 330.412 20.6734 327.355 18.3782L328.556 16.7789ZM346.156 32.7271C348.832 35.557 351.459 38.5135 354.042 41.5696L352.514 42.8606C349.953 39.8293 347.35 36.9009 344.703 34.1013L346.156 32.7271ZM361.474 50.7701C363.872 53.8634 366.232 57.0251 368.56 60.2319L366.942 61.4068C364.624 58.2144 362.276 55.0696 359.893 51.9953L361.474 50.7701ZM375.387 69.8746C377.63 73.1137 379.844 76.3747 382.034 79.6348L380.373 80.7498C378.188 77.4953 375.979 74.2424 373.743 71.0131L375.387 69.8746ZM388.576 89.4581C390.769 92.7698 392.939 96.0546 395.091 99.2931L393.426 100.4C391.272 97.16 389.1 93.8712 386.908 90.5624L388.576 89.4581ZM401.664 109.083C403.922 112.401 406.163 115.635 408.391 118.756L406.764 119.919C404.524 116.782 402.274 113.535 400.01 110.209L401.664 109.083ZM415.392 128.203C417.877 131.413 420.35 134.438 422.819 137.24L421.318 138.562C418.816 135.722 416.316 132.663 413.811 129.428L415.392 128.203ZM430.97 145.631C434.029 148.433 437.082 150.813 440.141 152.702L439.09 154.404C435.901 152.435 432.748 149.972 429.619 147.106L430.97 145.631ZM450.635 157.137C454.305 157.942 458.015 157.945 461.799 157.016L462.276 158.958C458.184 159.963 454.164 159.959 450.207 159.091L450.635 157.137ZM472.14 152.205C474.96 150.275 477.841 147.803 480.788 144.732L482.231 146.117C479.206 149.269 476.221 151.836 473.269 153.856L472.14 152.205ZM488.258 135.826C489.422 134.265 490.596 132.612 491.78 130.864L493.436 131.985C492.236 133.757 491.045 135.435 489.861 137.022L488.258 135.826Z" fill="#D9D9D9"/>
</svg>
