<svg width="29" height="56" viewBox="0 0 29 56" fill="none" xmlns="http://www.w3.org/2000/svg">
<g id="Frame" clip-path="url(#clip0_34_509)">
<g id="Group">
<path id="Vector" d="M8.22672 0C9.10818 0.203319 9.7252 0.784232 10.3128 1.36515C11.3118 2.38174 12.3402 3.36929 13.3392 4.41494C14.2206 5.37344 14.2206 6.76763 13.3392 7.72614C12.6928 8.42324 11.9876 9.09129 11.3118 9.75934C11.1649 9.90456 11.1062 9.9917 11.2237 10.195C11.7819 11.3568 12.5459 12.3734 13.3979 13.332C14.632 14.7261 15.9836 15.9751 17.5702 16.9627C17.9522 17.2241 18.3929 17.3983 18.7748 17.6307C18.9218 17.7178 18.9805 17.6307 19.0687 17.5436C19.6563 16.9627 20.2146 16.3817 20.8022 15.8299C21.2429 15.3942 21.7424 15.0456 22.3888 14.9295C23.2703 14.7842 24.0048 15.0456 24.6512 15.6266C25.8265 16.7593 26.9724 17.8921 28.1183 19.0539C29.323 20.2739 29.2936 21.7261 28.0889 22.9751C27.4131 23.6722 26.7374 24.3402 26.0616 25.0083C25.0038 26.0539 23.711 26.3734 22.2713 26.2282C19.9795 26.0249 17.9228 25.1245 15.9248 24.0207C13.2217 22.5685 10.8417 20.7095 8.7556 18.444C6.9633 16.4979 5.37667 14.3485 4.20139 11.9668C3.52561 10.5726 2.93797 9.14938 2.64415 7.60996C2.43847 6.47718 2.35033 5.31535 2.8792 4.21162C3.05549 3.80498 3.31993 3.39834 3.64313 3.04979C4.3483 2.29461 5.11223 1.56846 5.87616 0.813278C6.28751 0.406639 6.84577 0.145228 7.43341 0C7.69784 0 7.96228 0 8.22672 0ZM22.5064 24.9212C23.6523 24.9502 24.3868 24.7469 24.9744 24.195C25.7384 23.4689 26.4729 22.7137 27.2075 21.9295C27.7951 21.3195 27.7951 20.6805 27.1781 20.0705C26.0322 18.9087 24.8569 17.7469 23.6816 16.6141C23.1821 16.1203 22.5945 16.1203 22.0362 16.556C21.9187 16.6432 21.8306 16.7303 21.713 16.8465C21.0666 17.4855 20.4202 18.1245 19.7738 18.7344C19.3919 19.1411 18.9511 19.2282 18.4516 18.9958C17.9228 18.7344 17.3645 18.444 16.865 18.1245C14.9846 16.9336 13.3686 15.4232 11.9582 13.7386C11.1355 12.751 10.3716 11.6763 9.84273 10.4855C9.57829 9.87552 9.66644 9.46888 10.1365 9.00415C10.2835 8.85892 10.4597 8.71369 10.6067 8.56846C11.1649 8.0166 11.7232 7.49378 12.2521 6.91286C12.7515 6.39004 12.7515 5.75104 12.2521 5.22822C11.0768 4.03734 9.87211 2.87552 8.66745 1.68465C8.52054 1.53942 8.28548 1.45228 8.05043 1.39419C7.52155 1.24896 7.11021 1.51037 6.75762 1.85892C6.11122 2.49793 5.43543 3.10788 4.81841 3.77593C4.52459 4.09544 4.26016 4.47303 4.08386 4.87967C3.73128 5.69295 3.81943 6.59336 3.99572 7.43568C4.3483 9.17842 5.05347 10.7759 5.90555 12.3154C7.46279 15.0456 9.402 17.4274 11.7819 19.4896C14.015 21.4647 16.5124 23.0041 19.2743 24.1079C20.4202 24.6017 21.5955 24.8921 22.5064 24.9212Z" fill="#FEFAF6"/>
</g>
</g>
<defs>
<clipPath id="clip0_34_509">
<rect width="29" height="56" fill="white"/>
</clipPath>
</defs>
</svg>
