<svg width="29" height="20" viewBox="0 0 29 20" fill="none" xmlns="http://www.w3.org/2000/svg">
<g id="Group">
<path id="Vector" d="M28.1773 17.668C28.0598 18.1037 27.9129 18.5394 27.619 18.888C27.1489 19.4398 26.5319 19.7593 25.768 19.7884C25.7092 19.7884 25.6211 19.7884 25.5623 19.7884C17.923 19.7884 10.2543 19.7884 2.61499 19.7884C1.55724 19.7884 0.734549 19.3527 0.264438 18.3942C0.117528 18.0747 0 17.6971 0 17.3195C0 12.4398 0 7.56016 0 2.68049C0 1.2863 1.08713 0.211609 2.49747 0.211609C10.2249 0.211609 17.9524 0.211609 25.6505 0.211609C26.8551 0.211609 27.8247 0.966795 28.0892 2.12862C28.1185 2.18671 28.1185 2.27385 28.1479 2.33194C28.1773 7.44397 28.1773 12.556 28.1773 17.668ZM2.85005 1.83817C2.90881 1.9253 2.96758 1.95435 2.99696 1.98339C6.11145 5.03318 9.19656 8.08298 12.311 11.1328C13.3688 12.1784 14.8379 12.1494 15.925 11.1037C19.0101 8.08298 22.0952 5.03318 25.1803 1.98339C25.2391 1.9253 25.2685 1.89626 25.3273 1.80912C17.8055 1.83817 10.3718 1.83817 2.85005 1.83817ZM2.96758 18.1618C10.3425 18.1618 17.8055 18.1618 25.151 18.1618C22.8886 15.8672 20.5674 13.5145 18.1581 11.1037C17.6879 11.5975 17.2766 12.1203 16.8065 12.527C15.4549 13.6597 13.9564 13.8631 12.3698 13.166C11.8997 12.9626 11.459 12.5851 11.0476 12.2365C10.6657 11.917 10.3131 11.5104 9.9311 11.1328C7.58055 13.4855 5.25937 15.8382 2.96758 18.1618ZM1.67477 17C4.05471 14.6182 6.37589 12.2655 8.6383 9.99999C6.37589 7.70538 4.05471 5.38173 1.67477 2.99999C1.67477 7.67634 1.67477 12.2946 1.67477 17ZM19.5684 9.9419C21.8602 12.2365 24.1814 14.5892 26.5025 16.9419C26.5025 12.2946 26.5025 7.67634 26.5025 2.97094C24.1226 5.35269 21.8014 7.70539 19.5684 9.9419Z" fill="#FEFAF6"/>
</g>
</svg>
