<svg width="27" height="27" viewBox="0 0 27 27" fill="none" xmlns="http://www.w3.org/2000/svg">
<path d="M6.22672 0C7.10818 0.203319 7.7252 0.784232 8.31284 1.36515C9.31183 2.38174 10.3402 3.36929 11.3392 4.41494C12.2206 5.37344 12.2206 6.76763 11.3392 7.72614C10.6928 8.42324 9.98761 9.09129 9.31183 9.75934C9.16492 9.90456 9.10615 9.9917 9.22368 10.195C9.78194 11.3568 10.5459 12.3734 11.3979 13.332C12.632 14.7261 13.9836 15.9751 15.5702 16.9627C15.9522 17.2241 16.3929 17.3983 16.7748 17.6307C16.9218 17.7178 16.9805 17.6307 17.0687 17.5436C17.6563 16.9627 18.2146 16.3817 18.8022 15.8299C19.2429 15.3942 19.7424 15.0456 20.3888 14.9295C21.2703 14.7842 22.0048 15.0456 22.6512 15.6266C23.8265 16.7593 24.9724 17.8921 26.1183 19.0539C27.323 20.2739 27.2936 21.7261 26.0889 22.9751C25.4131 23.6722 24.7374 24.3402 24.0616 25.0083C23.0038 26.0539 21.711 26.3734 20.2713 26.2282C17.9795 26.0249 15.9228 25.1245 13.9248 24.0207C11.2217 22.5685 8.84171 20.7095 6.7556 18.444C4.9633 16.4979 3.37667 14.3485 2.20139 11.9668C1.52561 10.5726 0.937967 9.14938 0.644147 7.60996C0.438473 6.47718 0.350327 5.31535 0.879203 4.21162C1.05549 3.80498 1.31993 3.39834 1.64313 3.04979C2.3483 2.29461 3.11223 1.56846 3.87616 0.813278C4.28751 0.406639 4.84577 0.145228 5.43341 0C5.69784 0 5.96228 0 6.22672 0ZM20.5064 24.9212C21.6523 24.9502 22.3868 24.7469 22.9744 24.195C23.7384 23.4689 24.4729 22.7137 25.2075 21.9295C25.7951 21.3195 25.7951 20.6805 25.1781 20.0705C24.0322 18.9087 22.8569 17.7469 21.6816 16.6141C21.1821 16.1203 20.5945 16.1203 20.0362 16.556C19.9187 16.6432 19.8306 16.7303 19.713 16.8465C19.0666 17.4855 18.4202 18.1245 17.7738 18.7344C17.3919 19.1411 16.9511 19.2282 16.4516 18.9958C15.9228 18.7344 15.3645 18.444 14.865 18.1245C12.9846 16.9336 11.3686 15.4232 9.95823 13.7386C9.13554 12.751 8.3716 11.6763 7.84273 10.4855C7.57829 9.87552 7.66644 9.46888 8.13655 9.00415C8.28346 8.85892 8.45975 8.71369 8.60666 8.56846C9.16492 8.0166 9.72317 7.49378 10.2521 6.91286C10.7515 6.39004 10.7515 5.75104 10.2521 5.22822C9.07677 4.03734 7.87211 2.87552 6.66745 1.68465C6.52054 1.53942 6.28548 1.45228 6.05043 1.39419C5.52155 1.24896 5.11021 1.51037 4.75762 1.85892C4.11122 2.49793 3.43543 3.10788 2.81841 3.77593C2.52459 4.09544 2.26016 4.47303 2.08386 4.87967C1.73128 5.69295 1.81943 6.59336 1.99572 7.43568C2.3483 9.17842 3.05347 10.7759 3.90555 12.3154C5.46279 15.0456 7.402 17.4274 9.78194 19.4896C12.015 21.4647 14.5124 23.0041 17.2743 24.1079C18.4202 24.6017 19.5955 24.8921 20.5064 24.9212Z" fill="#FEFAF6"/>
</svg>
